<?xml version="1.0" encoding="UTF-8" standalone="no"?>
<svg width="158px" height="206px" viewBox="0 0 158 206" version="1.1" xmlns="http://www.w3.org/2000/svg" xmlns:xlink="http://www.w3.org/1999/xlink">
    <!-- Generator: Sketch 40 (33762) - http://www.bohemiancoding.com/sketch -->
    <title>Page 1</title>
    <desc>Created with Sketch.</desc>
    <defs>
        <polygon id="path-1" points="1.84594766e-20 0.496209831 1.84594766e-20 8.20393874 142.627485 8.20393874 142.627485 0.496209831 0 0.496209831"></polygon>
    </defs>
    <g id="Symbols" stroke="none" stroke-width="1" fill="none" fill-rule="evenodd">
        <g id="coffee">
            <g id="Page-1">
                <path d="M148.206111,140.692921 C145.913749,153.282075 135.337965,160.400478 126.869982,164.154526 C124.61712,165.153372 122.050301,166.334075 119.361577,167.597503 C127.420939,154.483972 131.706689,141.897553 133.295542,127.098084 C134.394732,126.990747 135.573603,126.959299 136.885275,127.016043 C141.578965,127.215676 144.876534,128.471583 146.686723,130.746847 C148.926646,133.562896 148.749577,137.710056 148.206111,140.692921 M153.787189,125.056637 C150.264878,120.62712 144.707637,118.220591 137.270741,117.902683 C136.093232,117.853458 134.997447,117.871234 133.934353,117.920458 C133.988154,116.397235 134.022887,114.852818 134.031059,113.275584 C134.028335,113.276952 134.026292,113.278319 134.023568,113.279003 C134.028335,113.194911 134.035827,113.110819 134.037189,113.02536 L129.502861,113.02536 L13.1494819,113.02536 L8.61515431,113.02536 C8.61719741,113.110819 8.62400776,113.194911 8.628775,113.279003 C8.628775,113.279003 8.62400776,113.276952 8.62196466,113.275584 C8.77111121,142.646858 16.5907491,162.234772 38.3021284,187.964804 C40.0333181,190.016506 36.8787664,191.817985 37.0776284,193.76235 L105.574715,193.76235 C105.774258,191.817985 102.619025,190.016506 104.350215,187.964804 C105.774939,186.276815 107.135646,184.616857 108.442551,182.976726 C115.498068,179.51529 124.336534,175.248487 130.540077,172.498754 C145.349172,165.932759 154.797844,155.220288 157.144008,142.333052 C158.408689,135.382149 157.248206,129.408215 153.787189,125.056637" id="Fill-1" fill="#D18414"></path>
                <g id="Group-5" transform="translate(0.000000, 196.897811)">
                    <mask id="mask-2" fill="white">
                        <use xlink:href="#path-1"></use>
                    </mask>
                    <g id="Clip-4"></g>
                    <path d="M71.3136405,0.496209831 L-0.000204310345,0.496209831 C1.92508017,2.90820802 2.74981293,3.32251383 9.5233819,5.28123685 C16.971856,7.43480666 23.8598388,7.90107162 71.3136405,8.20393874 C118.767442,7.90107162 125.655425,7.43480666 133.103899,5.28123685 C139.877468,3.32251383 140.70152,2.90820802 142.627485,0.496209831 L71.3136405,0.496209831 Z" id="Fill-3" fill="#D18414" mask="url(#mask-2)"></path>
                </g>
                <path d="M93.8639862,0 C90.3416759,6.35952584 87.4425121,12.827072 85.9095034,21.563045 C83.9821759,32.5489858 85.4736414,40.9383366 87.2470552,51.2324003 C90.9593741,73.4510877 83.8616328,92.3929306 71.8631672,97.8903449 C75.1055724,90.7931359 78.7804345,83.0642131 79.3994948,73.561159 C80.1139,62.5882081 76.1727534,54.429255 75.5319,44.0791302 C74.6050121,23.227105 82.3797017,3.17907925 93.8639862,0" id="Fill-6" fill="#D18414"></path>
                <path d="M113.556711,24.1547808 C111.254815,28.3108287 109.360858,32.5366113 108.359056,38.2452805 C107.099142,45.4238465 108.073703,50.9062199 109.232823,57.6328781 C111.658668,72.1520407 107.020823,84.5292559 99.1800733,88.1212736 C101.298772,83.48392 103.700099,78.4336278 104.104634,72.2238264 C104.571823,65.0534644 101.996151,59.721499 101.577315,52.9586061 C100.971875,39.3330041 106.052392,26.232463 113.556711,24.1547808" id="Fill-8" fill="#D18414"></path>
                <path d="M67.0759034,24.1547808 C64.7740069,28.3108287 62.88005,32.5366113 61.8782483,38.2452805 C60.6183345,45.4238465 61.5928948,50.9062199 62.7520155,57.6328781 C65.1778603,72.1520407 60.5400155,84.5292559 52.6992655,88.1212736 C54.8179638,83.48392 57.2192914,78.4336278 57.6238259,72.2238264 C58.0910155,65.0534644 55.5153431,59.721499 55.0965069,52.9586061 C54.4910672,39.3330041 59.5715845,26.232463 67.0759034,24.1547808" id="Fill-10" fill="#D18414"></path>
            </g>
        </g>
    </g>
</svg>