<?xml version="1.0" encoding="UTF-8" standalone="no"?>
<svg width="705px" height="459px" viewBox="0 0 705 459" version="1.1" xmlns="http://www.w3.org/2000/svg" xmlns:xlink="http://www.w3.org/1999/xlink">
    <!-- Generator: Sketch 40 (33762) - http://www.bohemiancoding.com/sketch -->
    <title>Page 1</title>
    <desc>Created with Sketch.</desc>
    <defs></defs>
    <g id="Symbols" stroke="none" stroke-width="1" fill="none" fill-rule="evenodd">
        <g id="Clock-In" fill="#3D914C">
            <g id="Page-1">
                <polygon id="Fill-1" points="439.243812 118.91367 439.243812 256.61367 558.634617 330.05367 577.002433 300.21867 473.683467 238.25367 473.683467 118.91367"></polygon>
                <polygon id="Fill-3" points="135.634077 45.9 103.490398 78.03 232.065111 206.55 0.000360153257 206.55 0.000360153257 252.45 232.065111 252.45 103.490398 380.97 135.634077 413.1 319.312238 229.5"></polygon>
                <path d="M475.400228,0 C384.945036,0 306.288466,52.9992 268.93337,129.4587 L321.609385,129.4587 C354.476071,79.2486 411.224519,45.9 475.400228,45.9 C576.423216,45.9 659.078389,128.52 659.078389,229.5 C659.078389,330.48 576.423216,413.1 475.400228,413.1 C411.224519,413.1 354.47427,379.7514 321.607584,329.5413 L268.93517,329.5413 C306.289366,406.0008 384.945036,459 475.400228,459 C601.678964,459 704.997929,355.725 704.997929,229.5 C704.997929,103.275 601.678964,0 475.400228,0" id="Fill-5"></path>
            </g>
        </g>
    </g>
</svg>